<?xml version="1.0" standalone="no"?>
<!DOCTYPE svg PUBLIC "-//W3C//DTD SVG 20010904//EN"
 "http://www.w3.org/TR/2001/REC-SVG-20010904/DTD/svg10.dtd">
<svg version="1.0" xmlns="http://www.w3.org/2000/svg"
 width="50.000000pt" height="50.000000pt" viewBox="0 0 50.000000 50.000000"
 preserveAspectRatio="xMidYMid meet">

<g transform="translate(0.000000,50.000000) scale(0.100000,-0.100000)"
fill="#000000" stroke="none">
<path d="M236 413 c-4 -21 -10 -67 -14 -103 l-8 -65 37 0 c37 0 37 0 32 35
-22 171 -35 207 -47 133z"/>
<path d="M215 201 c-9 -30 5 -51 35 -51 30 0 44 21 35 51 -4 13 -16 19 -35 19
-19 0 -31 -6 -35 -19z"/>
<path d="M155 167 c-53 -37 -135 -108 -135 -117 0 -7 98 28 188 67 10 4 10 9
-2 22 -7 9 -16 24 -17 33 -4 15 -7 15 -34 -5z"/>
<path d="M310 174 c0 -10 -7 -25 -15 -34 -14 -15 -7 -20 75 -53 49 -20 95 -37
102 -37 18 0 -38 54 -103 100 -47 33 -59 38 -59 24z"/>
</g>
</svg>
