<?xml version="1.0" standalone="no"?>
<!DOCTYPE svg PUBLIC "-//W3C//DTD SVG 20010904//EN"
 "http://www.w3.org/TR/2001/REC-SVG-20010904/DTD/svg10.dtd">
<svg version="1.0" xmlns="http://www.w3.org/2000/svg"
 width="100.000000pt" height="100.000000pt" viewBox="0 0 100.000000 100.000000"
 preserveAspectRatio="xMidYMid meet">

<g transform="translate(0.000000,100.000000) scale(0.100000,-0.100000)"
fill="#000000" stroke="none">
<path d="M0 500 l0 -500 500 0 500 0 0 500 0 500 -500 0 -500 0 0 -500z m710
283 l0 -38 -93 -42 c-77 -35 -93 -46 -95 -67 -2 -16 3 -28 15 -35 15 -8 33 2
96 51 l77 59 0 -170 0 -171 -100 0 c-99 0 -100 0 -96 23 3 12 10 55 16 96 11
77 7 91 -30 91 -39 0 -43 -14 -31 -94 18 -126 26 -116 -89 -116 l-100 0 0 163
c0 90 3 166 6 170 3 3 40 -21 81 -53 62 -49 78 -58 94 -49 10 5 19 20 19 33 0
19 -15 30 -100 69 -93 43 -100 48 -100 75 0 16 3 32 7 35 3 4 100 7 215 7
l208 0 0 -37z"/>
</g>
</svg>
